_RobotoSerifTextWide-SuperWidth1400.ufo
<glyph name="comma" format="2">
  <advance width="419.96000000000004"/>
  <unicode hex="002C"/>
  <outline>
    <contour>
      <point x="179.62" y="-194.784" type="line"/>
      <point x="305.67896676017995" y="-115.87810675319872"/>
      <point x="362.7800000000001" y="-28.016367640454895"/>
      <point x="362.7800000000001" y="66.78399999999999" type="curve" smooth="yes"/>
      <point x="362.7800000000001" y="156.064"/>
      <point x="297.52" y="198.03999999999996"/>
      <point x="203.4" y="198.03999999999996" type="curve" smooth="yes"/>
      <point x="111.82000000000002" y="198.03999999999996"/>
      <point x="54.63999999999999" y="152.072"/>
      <point x="54.63999999999999" y="89.28" type="curve" smooth="yes"/>
      <point x="54.63999999999999" y="25.554530566033808"/>
      <point x="115.36000000000001" y="-15.32"/>
      <point x="202.4" y="-15.32" type="curve" smooth="yes"/>
      <point x="229.72000000000003" y="-15.32"/>
      <point x="247.42000000000002" y="-13.152000000000001"/>
      <point x="261.58" y="-0.3200000000000003" type="curve"/>
      <point x="249.96000000000004" y="8.016"/>
      <point x="224.64" y="31.144"/>
      <point x="224.64000000000004" y="24.64" type="curve"/>
      <point x="216.56" y="-26.848"/>
      <point x="135.59999999999997" y="-83.84"/>
      <point x="17.700000000000003" y="-133.0" type="curve"/>
    </contour>
  </outline>
</glyph>
<glyph name="hyphen" format="2">
  <advance width="569.72"/>
  <unicode hex="002D"/>
  <outline>
    <contour>
      <point x="73.87999999999998" y="362.12" type="line"/>
      <point x="73.87999999999998" y="212.23999999999998" type="line"/>
      <point x="495.84000000000003" y="212.23999999999998" type="line"/>
      <point x="495.84000000000003" y="362.12" type="line"/>
    </contour>
  </outline>
</glyph>
<glyph name="G" format="2">
  <advance width="915"/>
  <unicode hex="0047"/>
  <anchor x="468.52" y="741.0" name="top"/>
  <anchor x="468.52" y="0.0" name="bottom"/>
  <outline>
    <contour>
      <point x="843.9200000000003" y="249.2" type="line" smooth="yes"/>
      <point x="843.9200000000003" y="278.2"/>
      <point x="860.6199999999999" y="285.2"/>
      <point x="883.4" y="285.2" type="curve" smooth="yes"/>
      <point x="891.48" y="285.2" type="line"/>
      <point x="891.48" y="361.32000000000005" type="line"/>
      <point x="505.46" y="361.32000000000005" type="line"/>
      <point x="505.46" y="285.2" type="line"/>
      <point x="516.08" y="285.2" type="line" smooth="yes"/>
      <point x="546.9400000000002" y="285.2"/>
      <point x="567.1800000000001" y="278.2"/>
      <point x="567.1800000000001" y="249.2" type="curve" smooth="yes"/>
      <point x="567.1800000000001" y="114.672" type="line"/>
      <point x="551.48" y="100.664"/>
      <point x="530.24" y="83.61599999999999"/>
      <point x="498.38000000000005" y="83.61599999999999" type="curve" smooth="yes"/>
      <point x="411.3400000000001" y="83.61599999999999"/>
      <point x="353.16000000000014" y="172.824"/>
      <point x="353.16000000000014" y="355.0" type="curve" smooth="yes"/>
      <point x="353.16000000000014" y="518.864"/>
      <point x="404.2600000000001" y="626.384"/>
      <point x="515.08" y="626.384" type="curve" smooth="yes"/>
      <point x="607.6600000000001" y="626.384"/>
      <point x="649.14" y="568.872"/>
      <point x="681.5399999999998" y="481.024" type="curve"/>
      <point x="818.14" y="481.024" type="line"/>
      <point x="818.14" y="710.0" type="line"/>
      <point x="702.78" y="710.0" type="line"/>
      <point x="678.0" y="534.696" type="line"/>
      <point x="754.88" y="522.2159999999999" type="line"/>
      <point x="714.4" y="635.696"/>
      <point x="651.6800000000001" y="720.0"/>
      <point x="471.05999999999995" y="720.0" type="curve" smooth="yes"/>
      <point x="221.10000000000002" y="720.0"/>
      <point x="33.4" y="569.0"/>
      <point x="33.4" y="355.0" type="curve" smooth="yes"/>
      <point x="33.4" y="134.504"/>
      <point x="211.48000000000005" y="-10.0"/>
      <point x="478.14" y="-10.0" type="curve" smooth="yes"/>
      <point x="650.14" y="-10.0"/>
      <point x="792.8200000000002" y="50.672000000000004"/>
      <point x="843.9200000000003" y="104.0" type="curve"/>
    </contour>
  </outline>
</glyph>
<glyph name="U" format="2">
  <advance width="883.4"/>
  <unicode hex="0055"/>
  <anchor x="485.21999999999997" y="741.0" name="top"/>
  <anchor x="550.48" y="0.0" name="right"/>
  <anchor x="485.21999999999997" y="0.0" name="bottom"/>
  <outline>
    <contour>
      <point x="396.18000000000006" y="278.488" type="curve" smooth="yes"/>
      <point x="396.18000000000006" y="623.88" type="line" smooth="yes"/>
      <point x="396.18000000000006" y="630.88"/>
      <point x="424.5" y="633.88"/>
      <point x="447.28000000000003" y="633.88" type="curve" smooth="yes"/>
      <point x="457.90000000000003" y="633.88" type="line"/>
      <point x="457.90000000000003" y="710.0" type="line"/>
      <point x="23.78000000000001" y="710.0" type="line"/>
      <point x="23.78000000000001" y="633.88" type="line"/>
      <point x="35.39999999999999" y="633.88" type="line" smooth="yes"/>
      <point x="65.26000000000002" y="633.88"/>
      <point x="87.04" y="626.88"/>
      <point x="87.04" y="597.88" type="curve" smooth="yes"/>
      <point x="87.04" y="278.488" type="line" smooth="yes"/>
      <point x="87.04" y="75.99199999999999"/>
      <point x="229.71999999999997" y="-10.0"/>
      <point x="457.9" y="-10.0" type="curve" smooth="yes"/>
      <point x="650.1399999999999" y="-10.0"/>
      <point x="796.3600000000001" y="73.328"/>
      <point x="796.3600000000001" y="278.488" type="curve" smooth="yes"/>
      <point x="796.3600000000001" y="596.2" type="line" smooth="yes"/>
      <point x="796.3600000000001" y="626.0400000000001"/>
      <point x="818.14" y="633.88"/>
      <point x="848.0" y="633.88" type="curve" smooth="yes"/>
      <point x="859.6199999999999" y="633.88" type="line"/>
      <point x="859.6199999999999" y="710.0" type="line"/>
      <point x="617.2800000000001" y="710.0" type="line"/>
      <point x="617.2800000000001" y="633.88" type="line"/>
      <point x="626.3600000000001" y="633.88" type="line" smooth="yes"/>
      <point x="650.14" y="633.88"/>
      <point x="679.0" y="627.544"/>
      <point x="679.0" y="613.544" type="curve" smooth="yes"/>
      <point x="679.0" y="278.488" type="line" smooth="yes"/>
      <point x="679.0" y="147.608"/>
      <point x="625.3600000000001" y="94.77600000000001"/>
      <point x="536.3199999999999" y="94.77600000000001" type="curve" smooth="yes"/>
      <point x="436.11999999999995" y="94.77600000000001"/>
      <point x="396.18000000000006" y="143.44799999999998"/>
    </contour>
  </outline>
</glyph>
<glyph name="g" format="2">
  <advance width="776"/>
  <unicode hex="0067"/>
  <anchor x="322.3" y="545.0" name="top"/>
  <outline>
    <contour>
      <point x="356.7" y="239.784" type="curve" smooth="yes"/>
      <point x="324.84000000000003" y="239.784"/>
      <point x="306.6" y="267.976"/>
      <point x="306.6" y="340.488" type="curve" smooth="yes"/>
      <point x="306.6" y="413.832"/>
      <point x="324.84000000000003" y="444.19199999999995"/>
      <point x="356.7" y="444.19199999999995" type="curve" smooth="yes"/>
      <point x="391.1" y="444.19199999999995"/>
      <point x="407.8" y="413.832"/>
      <point x="407.8" y="340.488" type="curve" smooth="yes"/>
      <point x="407.8" y="267.976"/>
      <point x="391.1" y="239.784"/>
    </contour>
    <contour>
      <point x="356.7" y="165.144" type="curve" smooth="yes"/>
      <point x="546.94" y="165.144"/>
      <point x="671.92" y="231.15200000000002"/>
      <point x="671.92" y="342.152" type="curve" smooth="yes"/>
      <point x="671.92" y="452.984"/>
      <point x="546.9399999999999" y="522.992"/>
      <point x="356.7" y="522.992" type="curve" smooth="yes"/>
      <point x="167.45999999999998" y="522.992"/>
      <point x="45.019999999999996" y="452.984"/>
      <point x="45.019999999999996" y="342.152" type="curve" smooth="yes"/>
      <point x="45.019999999999996" y="231.15200000000002"/>
      <point x="165.45999999999998" y="165.144"/>
    </contour>
    <contour>
      <point x="580.3399999999999" y="407.008" type="line"/>
      <point x="620.8200000000002" y="415.048"/>
      <point x="689.6200000000001" y="409.88800000000003"/>
      <point x="770.5800000000002" y="393.736" type="curve"/>
      <point x="770.5800000000002" y="533.16" type="line"/>
      <point x="662.3" y="545.488"/>
      <point x="602.58" y="493.016"/>
      <point x="550.48" y="408.69599999999997" type="curve"/>
    </contour>
    <contour>
      <point x="375.94000000000005" y="-236.0" type="line" smooth="yes"/>
      <point x="604.1199999999999" y="-236.0"/>
      <point x="759.96" y="-172.68"/>
      <point x="759.96" y="-39.704" type="curve" smooth="yes"/>
      <point x="759.96" y="55.943999999999996"/>
      <point x="668.3800000000001" y="102.60000000000001"/>
      <point x="500.38000000000005" y="102.60000000000001" type="curve" smooth="yes"/>
      <point x="280.81999999999994" y="102.60000000000001" type="line" smooth="yes"/>
      <point x="236.8" y="102.60000000000001"/>
      <point x="220.09999999999997" y="112.104"/>
      <point x="220.09999999999997" y="133.44799999999998" type="curve" smooth="yes"/>
      <point x="220.09999999999997" y="157.12"/>
      <point x="247.42000000000002" y="175.128"/>
      <point x="301.05999999999995" y="189.30399999999997" type="curve"/>
      <point x="222.1" y="215.472" type="line"/>
      <point x="90.57999999999998" y="184.8"/>
      <point x="21.240000000000002" y="137.144"/>
      <point x="21.240000000000002" y="71.84" type="curve" smooth="yes"/>
      <point x="21.240000000000002" y="8.879999999999995"/>
      <point x="67.8" y="-28.607999999999986"/>
      <point x="150.76" y="-52.456" type="curve"/>
      <point x="158.38" y="-72.42399999999999" type="line"/>
      <point x="483.68000000000006" y="-72.42399999999999" type="line" smooth="yes"/>
      <point x="518.62" y="-72.42399999999999"/>
      <point x="529.24" y="-80.768"/>
      <point x="529.24" y="-99.8" type="curve" smooth="yes"/>
      <point x="529.24" y="-133.336"/>
      <point x="480.14000000000004" y="-157.69599999999997"/>
      <point x="366.31999999999994" y="-157.69599999999997" type="curve" smooth="yes"/>
      <point x="335.46000000000004" y="-157.69599999999997" type="line" smooth="yes"/>
      <point x="230.72000000000003" y="-157.69599999999997"/>
      <point x="186.7" y="-142.344"/>
      <point x="186.7" y="-109.32" type="curve" smooth="yes"/>
      <point x="186.7" y="-86.136"/>
      <point x="200.85999999999996" y="-70.616"/>
      <point x="241.34000000000003" y="-55.59999999999999" type="curve"/>
      <point x="190.24" y="-24.608" type="line"/>
      <point x="37.94" y="-45.632000000000005"/>
      <point x="-17.700000000000006" y="-71.976"/>
      <point x="-17.700000000000006" y="-123.304" type="curve" smooth="yes"/>
      <point x="-17.700000000000006" y="-206.992"/>
      <point x="107.27999999999999" y="-236.0"/>
      <point x="299.52" y="-236.0" type="curve" smooth="yes"/>
    </contour>
  </outline>
</glyph>
<glyph name="i" format="2">
  <advance width="405.2600000000001"/>
  <unicode hex="0069"/>
  <anchor x="200.85999999999996" y="551.0" name="top"/>
  <anchor x="255.5" y="-10.0" name="right"/>
  <anchor x="198.32000000000002" y="-10.0" name="bottom"/>
  <outline>
    <contour>
      <point x="203.39999999999998" y="566.584" type="curve" smooth="yes"/>
      <point x="297.52" y="566.584"/>
      <point x="350.62" y="600.4"/>
      <point x="350.62" y="657.536" type="curve" smooth="yes"/>
      <point x="350.62" y="714.5039999999999"/>
      <point x="297.52" y="748.32"/>
      <point x="203.39999999999998" y="748.32" type="curve" smooth="yes"/>
      <point x="110.82000000000001" y="748.32"/>
      <point x="55.64000000000001" y="714.5039999999999"/>
      <point x="55.64000000000001" y="657.536" type="curve" smooth="yes"/>
      <point x="55.64000000000001" y="599.568"/>
      <point x="110.82000000000001" y="566.584"/>
    </contour>
    <contour>
      <point x="350.61999999999995" y="512.992" type="line"/>
      <point x="19.240000000000002" y="512.992" type="line"/>
      <point x="19.240000000000002" y="438.704" type="line"/>
      <point x="27.32" y="436.704" type="line" smooth="yes"/>
      <point x="51.099999999999994" y="430.2"/>
      <point x="59.72" y="425.69599999999997"/>
      <point x="59.72" y="407.512" type="curve" smooth="yes"/>
      <point x="59.72" y="98.47200000000001" type="line" smooth="yes"/>
      <point x="59.72" y="76.96000000000001"/>
      <point x="41.47999999999999" y="70.792"/>
      <point x="20.240000000000002" y="70.792" type="curve" smooth="yes"/>
      <point x="19.240000000000002" y="70.792" type="line"/>
      <point x="19.240000000000002" y="0.0" type="line"/>
      <point x="391.09999999999997" y="0.0" type="line"/>
      <point x="391.09999999999997" y="70.792" type="line"/>
      <point x="390.1" y="70.792" type="line" smooth="yes"/>
      <point x="368.31999999999994" y="70.792"/>
      <point x="350.61999999999995" y="76.96000000000001"/>
      <point x="350.61999999999995" y="98.47200000000001" type="curve" smooth="yes"/>
    </contour>
  </outline>
</glyph>
<glyph name="t" format="2">
  <advance width="509"/>
  <unicode hex="0074"/>
  <anchor x="185.7" y="675.0" name="top"/>
  <anchor x="347.08000000000004" y="681.0" name="right"/>
  <anchor x="289.9" y="0.0" name="bottom"/>
  <outline>
    <contour>
      <point x="353.1600000000001" y="181.488" type="curve" smooth="yes"/>
      <point x="353.1600000000001" y="652.16" type="line"/>
      <point x="68.80000000000001" y="652.16" type="line"/>
      <point x="68.80000000000001" y="500.0" type="line"/>
      <point x="61.71999999999999" y="492.0" type="line"/>
      <point x="61.71999999999999" y="174.664" type="line" smooth="yes"/>
      <point x="61.71999999999999" y="36.65599999999999"/>
      <point x="171.0" y="-10.0"/>
      <point x="336.46" y="-10.0" type="curve" smooth="yes"/>
      <point x="415.88" y="-10.0"/>
      <point x="473.06000000000006" y="1.1600000000000001"/>
      <point x="491.29999999999995" y="9.16" type="curve"/>
      <point x="491.29999999999995" y="96.112" type="line"/>
      <point x="481.68" y="93.608"/>
      <point x="451.81999999999994" y="85.77599999999998"/>
      <point x="423.49999999999994" y="85.77599999999998" type="curve" smooth="yes"/>
      <point x="375.94" y="85.77599999999998"/>
      <point x="353.1600000000001" y="105.8"/>
    </contour>
    <contour>
      <point x="68.80000000000001" y="547.176" type="line"/>
      <point x="68.80000000000001" y="515.3280000000001"/>
      <point x="40.480000000000004" y="507.992"/>
      <point x="2.539999999999999" y="507.992" type="curve" smooth="yes"/>
      <point x="0.0" y="507.992" type="line"/>
      <point x="0.0" y="432.69599999999997" type="line"/>
      <point x="112.82000000000002" y="432.69599999999997" type="line"/>
    </contour>
    <contour>
      <point x="230.72000000000003" y="432.69599999999997" type="line"/>
      <point x="491.3" y="432.69599999999997" type="line"/>
      <point x="491.3" y="512.992" type="line"/>
      <point x="230.72000000000003" y="512.992" type="line"/>
    </contour>
  </outline>
</glyph>
<glyph name="y" format="2">
  <advance width="728"/>
  <unicode hex="0079"/>
  <anchor x="356.70000000000005" y="551.0" name="top"/>
  <anchor x="367.31999999999994" y="-211.0" name="bottom"/>
  <outline>
    <contour>
      <point x="324.84000000000003" y="-68.91199999999999" type="line"/>
      <point x="379.48" y="16.32" type="line"/>
      <point x="493" y="169" type="line"/>
      <point x="344.54" y="433.2" type="line"/>
      <point x="344.54" y="440.2"/>
      <point x="373.4" y="442.2"/>
      <point x="404.2600000000001" y="442.2" type="curve" smooth="yes"/>
      <point x="405.26000000000005" y="442.2" type="line"/>
      <point x="405.26000000000005" y="512.992" type="line"/>
      <point x="9.62" y="512.992" type="line"/>
      <point x="9.62" y="442.2" type="line"/>
      <point x="10.62" y="442.2" type="line"/>
      <point x="40.48000000000001" y="442.2"/>
      <point x="47.56" y="434.368"/>
      <point x="61.72" y="407.2" type="curve" smooth="yes"/>
    </contour>
    <contour>
      <point x="162.92000000000002" y="-234.496" type="curve" smooth="yes"/>
      <point x="277.2800000000001" y="-234.496"/>
      <point x="360.24" y="-162.488"/>
      <point x="459.9" y="20.328000000000003" type="curve" smooth="yes"/>
      <point x="659.76" y="397.2" type="line" smooth="yes"/>
      <point x="676.46" y="430.03999999999996"/>
      <point x="690.6199999999999" y="442.2"/>
      <point x="716.9399999999999" y="442.2" type="curve"/>
      <point x="717.9399999999999" y="442.2" type="line"/>
      <point x="717.9399999999999" y="512.992" type="line"/>
      <point x="498.38000000000005" y="512.992" type="line"/>
      <point x="498.38000000000005" y="442.2" type="line"/>
      <point x="501.91999999999996" y="442.2" type="line" smooth="yes"/>
      <point x="530.2399999999999" y="442.2"/>
      <point x="557.5600000000001" y="433.2"/>
      <point x="557.5600000000001" y="420.2" type="curve"/>
      <point x="374.4" y="72.0" type="line"/>
      <point x="337" y="12" type="line"/>
      <point x="310" y="-61"/>
      <point x="269.6600000000001" y="-86.272"/>
      <point x="198.32" y="-86.272" type="curve" smooth="yes"/>
      <point x="132.06" y="-86.272"/>
      <point x="67.80000000000001" y="-61.11999999999999"/>
      <point x="55.64" y="-59.11999999999999" type="curve"/>
      <point x="55.64" y="-211.504" type="line"/>
      <point x="73.88" y="-223.16799999999998"/>
      <point x="111.82000000000002" y="-234.496"/>
    </contour>
  </outline>
</glyph>
<glyph name="asciitilde" format="2">
  <advance width="628.9"/>
  <unicode hex="007E"/>
  <outline>
    <contour>
      <point x="416.41999999999996" y="262.344" type="curve" smooth="yes"/>
      <point x="517.08" y="262.344"/>
      <point x="573.2600000000001" y="333.312"/>
      <point x="605.12" y="453.576" type="curve"/>
      <point x="489.7600000000001" y="482.88800000000003" type="line"/>
      <point x="474.6" y="448.72"/>
      <point x="461.44000000000005" y="418.056"/>
      <point x="414.88000000000005" y="418.056" type="curve" smooth="yes"/>
      <point x="353.15999999999997" y="418.056"/>
      <point x="315.21999999999997" y="477.384"/>
      <point x="213.01999999999998" y="477.384" type="curve" smooth="yes"/>
      <point x="101.2" y="477.384"/>
      <point x="51.099999999999994" y="407.088"/>
      <point x="23.78" y="286.152" type="curve"/>
      <point x="140.14000000000004" y="257.008" type="line"/>
      <point x="150.76" y="291.512"/>
      <point x="160.38000000000005" y="321.84"/>
      <point x="207.94" y="321.84" type="curve" smooth="yes"/>
      <point x="269.65999999999997" y="321.84"/>
      <point x="310.14" y="262.344"/>
    </contour>
  </outline>
</glyph>
<glyph name="section" format="2">
  <advance width="790.8199999999999"/>
  <unicode hex="00A7"/>
  <outline>
    <contour>
      <point x="406.8" y="400.88" type="line"/>
      <point x="145.22000000000003" y="413.03200000000004"/>
      <point x="23.780000000000012" y="348.89599999999996"/>
      <point x="23.780000000000012" y="232.08" type="curve" smooth="yes"/>
      <point x="23.780000000000012" y="120.91999999999999"/>
      <point x="136.6" y="77.08000000000001"/>
      <point x="254.5" y="33.57599999999999" type="curve" smooth="yes"/>
      <point x="350.61999999999995" y="-2.5999999999999943"/>
      <point x="438.65999999999997" y="-24.44000000000001"/>
      <point x="438.65999999999997" y="-82.65599999999999" type="curve" smooth="yes"/>
      <point x="438.65999999999997" y="-123.024"/>
      <point x="414.88000000000005" y="-143.888"/>
      <point x="366.31999999999994" y="-143.888" type="curve" smooth="yes"/>
      <point x="303.05999999999995" y="-143.888"/>
      <point x="269.65999999999997" y="-115.56000000000002"/>
      <point x="234.26" y="-59.400000000000006" type="curve"/>
      <point x="223.64000000000004" y="-66.72000000000001"/>
      <point x="248.42000000000002" y="-123.04"/>
      <point x="289.9" y="-138.72" type="curve"/>
      <point x="289.9" y="-33.008" type="line"/>
      <point x="58.180000000000014" y="-33.008" type="line"/>
      <point x="58.180000000000014" y="-144.368" type="line"/>
      <point x="114.36000000000001" y="-199.504"/>
      <point x="228.18000000000004" y="-236.0"/>
      <point x="373.4" y="-236.0" type="curve" smooth="yes"/>
      <point x="554.02" y="-236.0"/>
      <point x="680.0" y="-162.50400000000002"/>
      <point x="680.0" y="-35.04" type="curve" smooth="yes"/>
      <point x="680.0" y="74.136"/>
      <point x="569.7200000000003" y="136.12"/>
      <point x="451.82000000000005" y="179.62400000000002" type="curve" smooth="yes"/>
      <point x="354.15999999999997" y="216.8"/>
      <point x="265.12" y="236.48000000000002"/>
      <point x="265.12" y="290.672" type="curve" smooth="yes"/>
      <point x="265.12" y="344.688"/>
      <point x="342.54" y="368.856"/>
      <point x="434.11999999999995" y="374.2" type="curve"/>
    </contour>
    <contour>
      <point x="450.81999999999994" y="81.8" type="line"/>
      <point x="664.8399999999999" y="100.968"/>
      <point x="767.04" y="158.784"/>
      <point x="767.04" y="273.75199999999995" type="curve" smooth="yes"/>
      <point x="767.04" y="379.096"/>
      <point x="652.6800000000001" y="424.75199999999995"/>
      <point x="530.24" y="469.256" type="curve" smooth="yes"/>
      <point x="440.20000000000005" y="504.264"/>
      <point x="354.15999999999997" y="521.448"/>
      <point x="354.15999999999997" y="575.152" type="curve" smooth="yes"/>
      <point x="354.15999999999997" y="607.688"/>
      <point x="379.48" y="628.888"/>
      <point x="421.96000000000004" y="628.888" type="curve" smooth="yes"/>
      <point x="467.52" y="628.888"/>
      <point x="495.84000000000003" y="605.872"/>
      <point x="517.08" y="572.3520000000001" type="curve"/>
      <point x="544.4" y="598.192"/>
      <point x="505.46" y="622.2"/>
      <point x="481.68000000000006" y="623.3679999999999" type="curve"/>
      <point x="481.68000000000006" y="539.008" type="line"/>
      <point x="696.7" y="539.008" type="line"/>
      <point x="696.7" y="634.536" type="line"/>
      <point x="661.3" y="681.336"/>
      <point x="556.5600000000001" y="720.0"/>
      <point x="427.04" y="720.0" type="curve" smooth="yes"/>
      <point x="236.79999999999998" y="720.0"/>
      <point x="112.82000000000001" y="653.168"/>
      <point x="112.82000000000001" y="537.2" type="curve" smooth="yes"/>
      <point x="112.82000000000001" y="423.368"/>
      <point x="221.1" y="364.712"/>
      <point x="332.91999999999996" y="323.20799999999997" type="curve" smooth="yes"/>
      <point x="434.11999999999995" y="286.03200000000004"/>
      <point x="525.6999999999999" y="262.352"/>
      <point x="525.6999999999999" y="210.328" type="curve" smooth="yes"/>
      <point x="525.6999999999999" y="165.648"/>
      <point x="481.68000000000006" y="141.816"/>
      <point x="436.12" y="128.8" type="curve"/>
    </contour>
  </outline>
</glyph>
<glyph name="dieresis" format="2">
  <advance width="595.04"/>
  <unicode hex="00A8"/>
  <anchor x="297.52" y="526.0" name="_top"/>
  <outline>
    <contour>
      <point x="143.68000000000006" y="564.232" type="curve" smooth="yes"/>
      <point x="230.71999999999997" y="564.232"/>
      <point x="281.81999999999994" y="598.048"/>
      <point x="281.81999999999994" y="655.1840000000001" type="curve" smooth="yes"/>
      <point x="281.81999999999994" y="712.152"/>
      <point x="230.71999999999997" y="745.968"/>
      <point x="143.68000000000006" y="745.968" type="curve" smooth="yes"/>
      <point x="58.18" y="745.968"/>
      <point x="6.079999999999998" y="712.152"/>
      <point x="6.079999999999998" y="655.1840000000001" type="curve" smooth="yes"/>
      <point x="6.079999999999998" y="597.2160000000001"/>
      <point x="58.18" y="564.232"/>
    </contour>
    <contour>
      <point x="449.28000000000003" y="564.232" type="curve" smooth="yes"/>
      <point x="537.3199999999999" y="564.232"/>
      <point x="588.4200000000001" y="598.048"/>
      <point x="588.4200000000001" y="655.1840000000001" type="curve" smooth="yes"/>
      <point x="588.4200000000001" y="712.152"/>
      <point x="537.3199999999999" y="745.968"/>
      <point x="449.28000000000003" y="745.968" type="curve" smooth="yes"/>
      <point x="363.78000000000003" y="745.968"/>
      <point x="311.68000000000006" y="712.152"/>
      <point x="311.68000000000006" y="655.1840000000001" type="curve" smooth="yes"/>
      <point x="311.68000000000006" y="597.2160000000001"/>
      <point x="363.78000000000003" y="564.232"/>
    </contour>
  </outline>
</glyph>
<glyph name="macron" format="2">
  <advance width="595.04"/>
  <unicode hex="00AF"/>
  <anchor x="297.52" y="526.0" name="_top"/>
  <outline>
    <contour>
      <point x="77.42" y="703.48" type="line"/>
      <point x="77.42" y="588.56" type="line"/>
      <point x="517.08" y="588.56" type="line"/>
      <point x="517.08" y="703.48" type="line"/>
    </contour>
  </outline>
</glyph>
<glyph name="cedilla" format="2">
  <advance width="713.4"/>
  <unicode hex="00B8"/>
  <anchor x="353.1600000000001" y="34.0" name="_bottom"/>
  <outline>
    <contour>
      <point x="377.94000000000005" y="4.0" type="line"/>
      <point x="267.65999999999997" y="4.0" type="line"/>
      <point x="229.72" y="-99.99199999999999" type="line"/>
      <point x="254.5" y="-99.99199999999999" type="line" smooth="yes"/>
      <point x="309.14" y="-99.99199999999999"/>
      <point x="325.84000000000003" y="-111.84"/>
      <point x="325.84000000000003" y="-132.68800000000002" type="curve" smooth="yes"/>
      <point x="325.84000000000003" y="-151.704"/>
      <point x="312.68000000000006" y="-164.208"/>
      <point x="287.9" y="-164.208" type="curve" smooth="yes"/>
      <point x="259.04" y="-164.208"/>
      <point x="230.72000000000003" y="-149.8747456116488"/>
      <point x="198.32" y="-127.864" type="curve"/>
      <point x="141.68000000000004" y="-189.32" type="line"/>
      <point x="183.16" y="-219.992"/>
      <point x="236.8" y="-237.664"/>
      <point x="315.2199999999999" y="-237.664" type="curve" smooth="yes"/>
      <point x="414.88000000000005" y="-237.664"/>
      <point x="483.68000000000006" y="-207.16799999999998"/>
      <point x="483.68000000000006" y="-138.176" type="curve" smooth="yes"/>
      <point x="483.68000000000006" y="-80.43074000000001"/>
      <point x="424.5228640485088" y="-48.99950510793926"/>
      <point x="322.3" y="-53.84" type="curve"/>
      <point x="294.0514727657535" y="-76.90189764440693"/>
      <point x="329.63940543058226" y="-75.63292702682995"/>
      <point x="332.91999999999996" y="-66.168" type="curve"/>
    </contour>
  </outline>
</glyph>
<glyph name="Schwa" format="2">
  <advance width="918.8"/>
  <unicode hex="018F"/>
  <outline>
    <contour>
      <point x="435.11999999999995" y="720.0" type="curve" smooth="yes"/>
      <point x="233.26" y="720.0"/>
      <point x="116.35999999999999" y="639.344"/>
      <point x="52.1" y="537.864" type="curve"/>
      <point x="150.76" y="484.72" type="line"/>
      <point x="196.32" y="552.3839999999999"/>
      <point x="267.65999999999997" y="626.72"/>
      <point x="384.02" y="626.72" type="curve" smooth="yes"/>
      <point x="522.16" y="626.72"/>
      <point x="564.6399999999999" y="533.5142555704795"/>
      <point x="564.6399999999999" y="356.832" type="curve" smooth="yes"/>
      <point x="564.6399999999999" y="155.55720164381975"/>
      <point x="529.24" y="83.28000000000002"/>
      <point x="461.44" y="83.28000000000002" type="curve" smooth="yes"/>
      <point x="392.1" y="83.28000000000002"/>
      <point x="364.78000000000003" y="133.97445049522727"/>
      <point x="361.24" y="336.504" type="curve"/>
      <point x="324.84000000000003" y="311.17600000000004" type="line"/>
      <point x="739.7199999999999" y="311.17600000000004" type="line"/>
      <point x="737.1799999999998" y="398.632" type="line"/>
      <point x="33.4" y="398.632" type="line"/>
      <point x="34.4" y="125.51706366589167"/>
      <point x="179.62000000000003" y="-10.0"/>
      <point x="461.44" y="-10.0" type="curve" smooth="yes"/>
      <point x="703.7800000000002" y="-10.0"/>
      <point x="885.9399999999999" y="139.3037107691985"/>
      <point x="885.9399999999999" y="357.168" type="curve" smooth="yes"/>
      <point x="885.9399999999999" y="579.9601022950548"/>
      <point x="719.48" y="720.0"/>
    </contour>
  </outline>
</glyph>
<glyph name="circumflex" format="2">
  <advance width="593.96"/>
  <unicode hex="02C6"/>
  <anchor x="291.44000000000005" y="529.0" name="_top"/>
  <outline>
    <contour>
      <point x="427.0400000000001" y="729.68" type="line"/>
      <point x="567.1800000000001" y="581.0" type="line"/>
      <point x="567.1800000000001" y="556.024" type="line"/>
      <point x="445.74" y="556.024" type="line"/>
      <point x="229.72" y="662.536" type="line"/>
      <point x="401.7199999999999" y="662.536" type="line"/>
      <point x="183.15999999999997" y="556.024" type="line"/>
      <point x="74.88" y="556.024" type="line"/>
      <point x="74.88" y="581.0" type="line"/>
      <point x="216.56" y="729.68" type="line"/>
    </contour>
  </outline>
</glyph>
<glyph name="verticallinelowmod" format="2">
  <advance width="595.04"/>
  <unicode hex="02CC"/>
  <outline>
    <contour>
      <point x="220.1" y="-266.64" type="line"/>
      <point x="373.40000000000003" y="-266.64" type="line"/>
      <point x="373.40000000000003" y="-47.0" type="line"/>
      <point x="220.1" y="-47.0" type="line"/>
    </contour>
  </outline>
</glyph>
<glyph name="breve" format="2">
  <advance width="595.04"/>
  <unicode hex="02D8"/>
  <anchor x="297.52" y="517.0" name="_top"/>
  <outline>
    <contour>
      <point x="297.52" y="559.032" type="curve" smooth="yes"/>
      <point x="171.0" y="559.032"/>
      <point x="84.5" y="621.344"/>
      <point x="88.04000000000003" y="747.6479999999999" type="curve"/>
      <point x="215.01999999999998" y="747.6479999999999" type="line"/>
      <point x="223.64000000000004" y="697.12"/>
      <point x="250.95999999999998" y="685.44"/>
      <point x="301.06" y="685.44" type="curve" smooth="yes"/>
      <point x="350.61999999999995" y="685.44"/>
      <point x="376.94000000000005" y="697.12"/>
      <point x="385.02" y="747.6479999999999" type="curve"/>
      <point x="506.46000000000004" y="747.6479999999999" type="line"/>
      <point x="510.0" y="621.344"/>
      <point x="421.9600000000001" y="559.032"/>
    </contour>
  </outline>
</glyph>
<glyph name="tilde" format="2">
  <advance width="594.5"/>
  <unicode hex="02DC"/>
  <anchor x="297.52" y="516.0" name="_top"/>
  <outline>
    <contour>
      <point x="375.94" y="556.56" type="curve" smooth="yes"/>
      <point x="461.43999999999994" y="556.56"/>
      <point x="510.0" y="617.696"/>
      <point x="533.78" y="713.84" type="curve"/>
      <point x="424.5" y="743.32" type="line"/>
      <point x="412.3399999999999" y="706.808"/>
      <point x="404.26" y="687.7919999999999"/>
      <point x="375.94000000000005" y="687.7919999999999" type="curve" smooth="yes"/>
      <point x="329.28307692298" y="687.7919999999999"/>
      <point x="299.17840579728005" y="741.152"/>
      <point x="217.55999999999997" y="741.152" type="curve" smooth="yes"/>
      <point x="123.43999999999998" y="741.152"/>
      <point x="84.5" y="682.68"/>
      <point x="64.26" y="584.536" type="curve"/>
      <point x="173.54000000000002" y="556.888" type="line"/>
      <point x="183.15999999999997" y="593.904"/>
      <point x="191.24" y="611.7520000000001"/>
      <point x="218.55999999999997" y="611.7520000000001" type="curve" smooth="yes"/>
      <point x="258.61284671498004" y="611.7520000000001"/>
      <point x="285.01295774598" y="556.56"/>
    </contour>
  </outline>
</glyph>
<glyph name="hungarumlaut" format="2">
  <advance width="595.04"/>
  <unicode hex="02DD"/>
  <anchor x="308.14" y="525.0" name="_top"/>
  <outline>
    <contour>
      <point x="121.44" y="685.3679999999999" type="curve" smooth="yes"/>
      <point x="116.36000000000001" y="585.168" type="line"/>
      <point x="116.36000000000001" y="559.344" type="line"/>
      <point x="210.48" y="559.344" type="line"/>
      <point x="258.04" y="618.568" type="line" smooth="yes"/>
      <point x="311.68" y="670.688"/>
      <point x="330.38" y="702.0"/>
      <point x="330.38" y="733.312" type="curve" smooth="yes"/>
      <point x="330.38" y="767.7919999999999"/>
      <point x="302.06" y="795.6080000000001"/>
      <point x="237.79999999999998" y="795.6080000000001" type="curve" smooth="yes"/>
      <point x="160.38" y="795.6080000000001"/>
      <point x="124.97999999999999" y="757.48"/>
    </contour>
    <contour>
      <point x="363.78000000000003" y="685.3679999999999" type="curve" smooth="yes"/>
      <point x="359.24" y="585.168" type="line"/>
      <point x="359.24" y="559.344" type="line"/>
      <point x="452.81999999999994" y="559.344" type="line"/>
      <point x="500.38000000000005" y="618.568" type="line" smooth="yes"/>
      <point x="554.02" y="670.688"/>
      <point x="573.26" y="702.0"/>
      <point x="573.26" y="733.312" type="curve" smooth="yes"/>
      <point x="573.26" y="767.7919999999999"/>
      <point x="544.4000000000001" y="795.6080000000001"/>
      <point x="480.14000000000004" y="795.6080000000001" type="curve" smooth="yes"/>
      <point x="403.26" y="795.6080000000001"/>
      <point x="367.31999999999994" y="757.48"/>
    </contour>
  </outline>
</glyph>
<glyph name="mu" format="2">
  <advance width="943.1200000000002"/>
  <unicode hex="03BC"/>
  <outline>
    <contour>
      <point x="697.7" y="-10.0" type="curve" smooth="yes"/>
      <point x="833.3" y="-10.0"/>
      <point x="900.1" y="50.616"/>
      <point x="930.9599999999999" y="128.896" type="curve"/>
      <point x="833.3" y="167.55199999999996" type="line"/>
      <point x="820.6800000000001" y="128.072"/>
      <point x="808.52" y="103.912"/>
      <point x="783.7399999999999" y="103.912" type="curve" smooth="yes"/>
      <point x="760.96" y="103.912"/>
      <point x="753.8800000000001" y="115.07999999999998"/>
      <point x="753.8800000000001" y="141.42399999999998" type="curve" smooth="yes"/>
      <point x="753.8800000000001" y="512.992" type="line"/>
      <point x="462.44000000000005" y="512.992" type="line"/>
      <point x="462.44000000000005" y="122.808" type="line"/>
      <point x="475.6" y="125.61600000000001" type="line" smooth="yes"/>
      <point x="485.2199999999999" y="37.983999999999995"/>
      <point x="564.6399999999999" y="-10.0"/>
    </contour>
    <contour>
      <point x="95.12" y="161.90400000000002" type="curve"/>
      <point x="139.14000000000001" y="32.64"/>
      <point x="213.02" y="-10.168000000000001"/>
      <point x="309.14000000000004" y="-10.168000000000001" type="curve" smooth="yes"/>
      <point x="390.1" y="-10.168000000000001"/>
      <point x="449.28" y="35.016"/>
      <point x="499.38" y="137.208" type="curve"/>
      <point x="467.52" y="188.16799999999998" type="line"/>
      <point x="447.2800000000001" y="136.44"/>
      <point x="420.9600000000001" y="104.416"/>
      <point x="386.55999999999995" y="104.416" type="curve" smooth="yes"/>
      <point x="356.7" y="104.416"/>
      <point x="346.0800000000001" y="124.77599999999998"/>
      <point x="346.0800000000001" y="169.192" type="curve" smooth="yes"/>
      <point x="346.0800000000001" y="512.992" type="line"/>
      <point x="54.64000000000001" y="512.992" type="line"/>
      <point x="54.64000000000001" y="-250.0" type="line"/>
      <point x="346.08000000000004" y="-250.0" type="line"/>
      <point x="346.08000000000004" y="-104.352"/>
      <point x="130.52" y="-40.16"/>
      <point x="112.82000000000001" y="187.6" type="curve"/>
      <point x="96.12" y="236.04"/>
      <point x="110.82000000000002" y="179.584"/>
    </contour>
  </outline>
</glyph>
<glyph name="endash" format="2">
  <advance width="736.1800000000001"/>
  <unicode hex="2013"/>
  <outline>
    <contour>
      <point x="77.42000000000002" y="374.12" type="line"/>
      <point x="77.42000000000002" y="255.88" type="line"/>
      <point x="658.76" y="255.88" type="line"/>
      <point x="658.76" y="374.12" type="line"/>
    </contour>
  </outline>
</glyph>
<glyph name="perthousand" format="2">
  <advance width="1367.08"/>
  <unicode hex="2030"/>
  <outline>
    <contour>
      <point x="225.64000000000004" y="443.976" type="curve" smooth="yes"/>
      <point x="203.39999999999998" y="443.976"/>
      <point x="189.24" y="467.352"/>
      <point x="189.24" y="546.84" type="curve" smooth="yes"/>
      <point x="189.24" y="625.4960000000001"/>
      <point x="203.39999999999998" y="648.0400000000001"/>
      <point x="225.64000000000004" y="648.0400000000001" type="curve" smooth="yes"/>
      <point x="248.42000000000002" y="648.0400000000001"/>
      <point x="262.58" y="625.4960000000001"/>
      <point x="262.58" y="546.84" type="curve" smooth="yes"/>
      <point x="262.58" y="467.352"/>
      <point x="248.42000000000002" y="443.976"/>
    </contour>
    <contour>
      <point x="225.64000000000004" y="373.67999999999995" type="curve" smooth="yes"/>
      <point x="355.70000000000005" y="373.67999999999995"/>
      <point x="447.2800000000001" y="447.344"/>
      <point x="447.2800000000001" y="546.84" type="curve" smooth="yes"/>
      <point x="447.2800000000001" y="647.336"/>
      <point x="355.70000000000005" y="720.0"/>
      <point x="225.64000000000004" y="720.0" type="curve" smooth="yes"/>
      <point x="96.12" y="720.0"/>
      <point x="4.539999999999999" y="646.336"/>
      <point x="4.539999999999999" y="546.84" type="curve" smooth="yes"/>
      <point x="4.539999999999999" y="446.344"/>
      <point x="96.12" y="373.67999999999995"/>
    </contour>
    <contour>
      <point x="182.15999999999997" y="0.0" type="line"/>
      <point x="870.2399999999999" y="710.0" type="line"/>
      <point x="721.48" y="710.0" type="line"/>
      <point x="33.400000000000006" y="0.0" type="line"/>
    </contour>
    <contour>
      <point x="679.0" y="60.29600000000001" type="curve" smooth="yes"/>
      <point x="656.2199999999999" y="60.29600000000001"/>
      <point x="642.0600000000002" y="83.672"/>
      <point x="642.0600000000002" y="163.16000000000003" type="curve" smooth="yes"/>
      <point x="642.0600000000002" y="241.816"/>
      <point x="656.2199999999999" y="264.36"/>
      <point x="679.0" y="264.36" type="curve" smooth="yes"/>
      <point x="701.24" y="264.36"/>
      <point x="715.9399999999998" y="241.816"/>
      <point x="715.9399999999998" y="163.16000000000003" type="curve" smooth="yes"/>
      <point x="715.9399999999998" y="83.672"/>
      <point x="701.24" y="60.29600000000001"/>
    </contour>
    <contour>
      <point x="679.0" y="-10.0" type="curve" smooth="yes"/>
      <point x="808.52" y="-10.0"/>
      <point x="900.1000000000001" y="63.664"/>
      <point x="900.1000000000001" y="163.16000000000003" type="curve" smooth="yes"/>
      <point x="900.1000000000001" y="263.656"/>
      <point x="808.52" y="336.32000000000005"/>
      <point x="679.0" y="336.32000000000005" type="curve" smooth="yes"/>
      <point x="549.48" y="336.32000000000005"/>
      <point x="457.9" y="262.656"/>
      <point x="457.9" y="163.16000000000003" type="curve" smooth="yes"/>
      <point x="457.9" y="62.664"/>
      <point x="549.48" y="-10.0"/>
    </contour>
    <contour>
      <point x="1141.44" y="60.29600000000001" type="curve" smooth="yes"/>
      <point x="1118.66" y="60.29600000000001"/>
      <point x="1104.5" y="83.672"/>
      <point x="1104.5" y="163.16000000000003" type="curve" smooth="yes"/>
      <point x="1104.5" y="241.816"/>
      <point x="1118.66" y="264.36"/>
      <point x="1141.44" y="264.36" type="curve" smooth="yes"/>
      <point x="1164.22" y="264.36"/>
      <point x="1178.3799999999999" y="241.816"/>
      <point x="1178.3799999999999" y="163.16000000000003" type="curve" smooth="yes"/>
      <point x="1178.3799999999999" y="83.672"/>
      <point x="1164.22" y="60.29600000000001"/>
    </contour>
    <contour>
      <point x="1141.44" y="-10.0" type="curve" smooth="yes"/>
      <point x="1270.96" y="-10.0"/>
      <point x="1362.5400000000004" y="63.664"/>
      <point x="1362.5400000000004" y="163.16000000000003" type="curve" smooth="yes"/>
      <point x="1362.5400000000004" y="263.656"/>
      <point x="1270.96" y="336.32000000000005"/>
      <point x="1141.44" y="336.32000000000005" type="curve" smooth="yes"/>
      <point x="1011.92" y="336.32000000000005"/>
      <point x="920.3399999999999" y="262.656"/>
      <point x="920.3399999999999" y="163.16000000000003" type="curve" smooth="yes"/>
      <point x="920.3399999999999" y="62.664"/>
      <point x="1011.92" y="-10.0"/>
    </contour>
  </outline>
</glyph>
<glyph name="lira" format="2">
  <advance width="665.8399999999999"/>
  <unicode hex="20A4"/>
  <outline>
    <contour>
      <point x="17.700000000000003" y="473.944" type="line"/>
      <point x="17.700000000000003" y="396.152" type="line"/>
      <point x="529.24" y="396.152" type="line"/>
      <point x="529.24" y="473.944" type="line"/>
    </contour>
    <contour>
      <point x="17.700000000000003" y="323.936" type="line"/>
      <point x="17.700000000000003" y="246.144" type="line"/>
      <point x="529.24" y="246.144" type="line"/>
      <point x="529.24" y="323.936" type="line"/>
    </contour>
    <contour>
      <point x="17.7" y="-10.168000000000001" type="line"/>
      <point x="254.5" y="17.008"/>
      <point x="380.4800000000001" y="139.12"/>
      <point x="380.4800000000001" y="260.296" type="curve" smooth="yes"/>
      <point x="380.4800000000001" y="381.784"/>
      <point x="335.46" y="462.75199999999995"/>
      <point x="335.46" y="544.8" type="curve" smooth="yes"/>
      <point x="335.46" y="598.68"/>
      <point x="353.15999999999997" y="629.712"/>
      <point x="394.64000000000004" y="629.712" type="curve" smooth="yes"/>
      <point x="418.41999999999996" y="629.712"/>
      <point x="436.11999999999995" y="617.52"/>
      <point x="448.28000000000003" y="600.0" type="curve"/>
      <point x="479.13999999999993" y="607.52"/>
      <point x="494.84000000000003" y="632.3520000000001"/>
      <point x="434.11999999999995" y="632.688" type="curve"/>
      <point x="434.11999999999995" y="540.0" type="line"/>
      <point x="624.3600000000001" y="540.0" type="line"/>
      <point x="624.3600000000001" y="662.16" type="line"/>
      <point x="593.5" y="684.832"/>
      <point x="513.54" y="719.664"/>
      <point x="375.94000000000005" y="719.664" type="curve" smooth="yes"/>
      <point x="173.54000000000002" y="719.664"/>
      <point x="70.34000000000002" y="634.6719999999999"/>
      <point x="70.34000000000002" y="531.48" type="curve" smooth="yes"/>
      <point x="70.34000000000002" y="412.16"/>
      <point x="178.08000000000004" y="337.832"/>
      <point x="178.08000000000004" y="231.98399999999998" type="curve" smooth="yes"/>
      <point x="178.08000000000004" y="166.44799999999998"/>
      <point x="119.9" y="127.10399999999998"/>
      <point x="17.7" y="104.92" type="curve"/>
    </contour>
    <contour>
      <point x="196.32000000000002" y="125.99199999999999" type="line"/>
      <point x="309.14000000000004" y="35.842071708820484"/>
      <point x="362.78000000000003" y="-10.0"/>
      <point x="454.3600000000001" y="-10.0" type="curve" smooth="yes"/>
      <point x="569.7199999999999" y="-10.0"/>
      <point x="634.98" y="62.688"/>
      <point x="665.8399999999999" y="167.344" type="curve"/>
      <point x="557.5600000000002" y="200.32" type="line"/>
      <point x="538.86" y="140.792"/>
      <point x="513.54" y="119.93599999999999"/>
      <point x="461.44000000000005" y="119.93599999999999" type="curve" smooth="yes"/>
      <point x="397.18000000000006" y="119.93599999999999"/>
      <point x="361.24" y="145.76315323020808"/>
      <point x="286.36" y="201.784" type="curve"/>
    </contour>
  </outline>
</glyph>
<glyph name="cedi" format="2">
  <advance width="665.8399999999999"/>
  <unicode hex="20B5"/>
  <outline>
    <contour>
      <point x="400.7199999999999" y="716.6400000000001" type="curve" smooth="yes"/>
      <point x="184.16" y="716.6400000000001"/>
      <point x="15.699999999999992" y="573.992"/>
      <point x="15.699999999999992" y="355.0" type="curve" smooth="yes"/>
      <point x="15.699999999999992" y="137.504"/>
      <point x="174.92790123472003" y="-6.640000000000001"/>
      <point x="394.64000000000004" y="-6.640000000000001" type="curve" smooth="yes"/>
      <point x="553.3882608699" y="-6.640000000000001"/>
      <point x="632.4593263008398" y="87.85988636003118"/>
      <point x="664.8399999999999" y="227.336" type="curve"/>
      <point x="564.64" y="260.66400000000004" type="line"/>
      <point x="540.88793454048" y="155.83698226183486"/>
      <point x="494.84000000000003" y="86.976"/>
      <point x="424.5" y="86.976" type="curve" smooth="yes"/>
      <point x="304.6" y="86.976"/>
      <point x="259.0400000000001" y="174.83200000000002"/>
      <point x="259.0400000000001" y="355.0" type="curve" smooth="yes"/>
      <point x="259.0400000000001" y="528.52"/>
      <point x="289.9" y="632.1840000000001"/>
      <point x="420.96" y="632.1840000000001" type="curve" smooth="yes"/>
      <point x="486.21999999999997" y="632.1840000000001"/>
      <point x="523.1600000000001" y="609.992"/>
      <point x="549.48" y="577.488" type="curve"/>
      <point x="586.42" y="586.5039999999999"/>
      <point x="606.12" y="632.152"/>
      <point x="503.91999999999996" y="626.16" type="curve"/>
      <point x="503.91999999999996" y="514.992" type="line"/>
      <point x="662.3000000000001" y="514.992" type="line"/>
      <point x="662.3000000000001" y="663.7840000000001" type="line"/>
      <point x="637.52" y="678.9599999999999"/>
      <point x="550.48" y="716.6400000000001"/>
    </contour>
    <contour>
      <point x="330.38000000000005" y="790.0" type="line"/>
      <point x="330.38000000000005" y="672.176" type="line"/>
      <point x="349.62" y="663.176" type="line"/>
      <point x="349.62" y="48.504000000000005" type="line"/>
      <point x="330.38000000000005" y="34.504000000000005" type="line"/>
      <point x="330.38000000000005" y="-120.0" type="line"/>
      <point x="461.44000000000005" y="-120.0" type="line"/>
      <point x="461.44000000000005" y="34.008" type="line"/>
      <point x="442.20000000000005" y="48.664" type="line"/>
      <point x="442.20000000000005" y="667.84" type="line"/>
      <point x="461.44000000000005" y="679.168" type="line"/>
      <point x="461.44000000000005" y="790.0" type="line"/>
    </contour>
  </outline>
</glyph>
<glyph name="estimated" format="2">
  <advance width="998.76"/>
  <unicode hex="212E"/>
  <outline>
    <contour>
      <point x="216.55999999999995" y="159.0" type="line"/>
      <point x="285.36" y="81.0"/>
      <point x="384.02" y="45.0"/>
      <point x="499.38" y="45.0" type="curve" smooth="yes"/>
      <point x="665.8399999999999" y="45.0"/>
      <point x="788.2800000000001" y="122.0"/>
      <point x="849.0" y="236.0" type="curve"/>
      <point x="920.3399999999999" y="236.0" type="line"/>
      <point x="859.6200000000001" y="98.0"/>
      <point x="707.3200000000002" y="-10.0"/>
      <point x="499.38" y="-10.0" type="curve" smooth="yes"/>
      <point x="250.95999999999998" y="-10.0"/>
      <point x="59.72000000000001" y="150.0"/>
      <point x="59.72000000000001" y="355.0" type="curve" smooth="yes"/>
      <point x="59.72000000000001" y="560.0"/>
      <point x="250.95999999999998" y="720.0"/>
      <point x="499.38" y="720.0" type="curve" smooth="yes"/>
      <point x="747.8000000000001" y="720.0"/>
      <point x="939.04" y="560.0"/>
      <point x="939.04" y="355.0" type="curve"/>
      <point x="165.45999999999998" y="355.0" type="line"/>
      <point x="165.45999999999998" y="410.0" type="line"/>
      <point x="782.2" y="410.0" type="line"/>
      <point x="782.2" y="554.0" type="line"/>
      <point x="713.4" y="629.0"/>
      <point x="614.7399999999999" y="665.0"/>
      <point x="499.38" y="665.0" type="curve" smooth="yes"/>
      <point x="384.02" y="665.0"/>
      <point x="285.36" y="629.0"/>
      <point x="216.55999999999995" y="554.0" type="curve"/>
    </contour>
  </outline>
</glyph>
<glyph name="E.alt" format="2">
  <advance width="768.04"/>
  <outline>
    <contour>
      <point x="740.7200000000003" y="211.176" type="line"/>
      <point x="612.2" y="211.176" type="line"/>
      <point x="599.04" y="129.456" type="line" smooth="yes"/>
      <point x="593.5" y="93.45599999999999"/>
      <point x="560.1" y="86.45599999999999"/>
      <point x="469.52" y="86.45599999999999" type="curve" smooth="yes"/>
      <point x="398.18000000000006" y="86.45599999999999" type="line"/>
      <point x="398.18000000000006" y="623.544" type="line"/>
      <point x="472.06000000000006" y="623.544" type="line" smooth="yes"/>
      <point x="531.24" y="623.544"/>
      <point x="571.72" y="616.544"/>
      <point x="576.8" y="580.544" type="curve" smooth="yes"/>
      <point x="582.8800000000001" y="523.824" type="line"/>
      <point x="708.8600000000001" y="523.824" type="line"/>
      <point x="708.8600000000001" y="710.0" type="line"/>
      <point x="26.319999999999993" y="710.0" type="line"/>
      <point x="26.319999999999993" y="633.88" type="line"/>
      <point x="37.94" y="633.88" type="line" smooth="yes"/>
      <point x="67.8" y="633.88"/>
      <point x="89.03999999999999" y="626.88"/>
      <point x="89.03999999999999" y="597.88" type="curve" smooth="yes"/>
      <point x="89.03999999999999" y="112.11999999999999" type="line" smooth="yes"/>
      <point x="89.03999999999999" y="83.11999999999999"/>
      <point x="67.8" y="76.11999999999999"/>
      <point x="37.94" y="76.11999999999999" type="curve" smooth="yes"/>
      <point x="26.319999999999993" y="76.11999999999999" type="line"/>
      <point x="26.319999999999993" y="0.0" type="line"/>
      <point x="740.7200000000003" y="0.0" type="line"/>
    </contour>
    <contour>
      <point x="301.06" y="325.016" type="line"/>
      <point x="462.44" y="325.016" type="line" smooth="yes"/>
      <point x="496.84000000000003" y="325.016"/>
      <point x="507.4600000000001" y="302.33599999999996"/>
      <point x="507.4600000000001" y="276.656" type="curve" smooth="yes"/>
      <point x="507.4600000000001" y="270.656" type="line"/>
      <point x="606.12" y="270.656" type="line"/>
      <point x="606.12" y="463.0" type="line"/>
      <point x="507.4600000000001" y="463.0" type="line"/>
      <point x="507.4600000000001" y="457.0" type="line" smooth="yes"/>
      <point x="507.4600000000001" y="431.152"/>
      <point x="496.84000000000003" y="407.64"/>
      <point x="462.44" y="407.64" type="curve" smooth="yes"/>
      <point x="301.06" y="407.64" type="line"/>
    </contour>
  </outline>
</glyph>
<glyph name="baht" format="2">
  <advance width="665.8399999999999"/>
  <outline>
    <contour>
      <point x="280.82" y="790.0" type="line"/>
      <point x="280.82" y="676.0" type="line"/>
      <point x="306.59999999999997" y="660.0" type="line"/>
      <point x="306.59999999999997" y="46.0" type="line"/>
      <point x="280.82" y="36.0" type="line"/>
      <point x="280.82" y="-110.0" type="line"/>
      <point x="411.34000000000003" y="-110.0" type="line"/>
      <point x="411.34000000000003" y="38.0" type="line"/>
      <point x="384.02" y="50.0" type="line"/>
      <point x="384.02" y="662.0" type="line"/>
      <point x="411.34000000000003" y="673.0" type="line"/>
      <point x="411.34000000000003" y="790.0" type="line"/>
    </contour>
    <contour>
      <point x="403.25999999999993" y="708.32" type="curve"/>
      <point x="12.160000000000004" y="708.32" type="line"/>
      <point x="12.160000000000004" y="632.2" type="line"/>
      <point x="23.78" y="632.2" type="line" smooth="yes"/>
      <point x="41.259999999934" y="632.2"/>
      <point x="54.63999999999999" y="625.2"/>
      <point x="54.63999999999999" y="596.2" type="curve" smooth="yes"/>
      <point x="54.63999999999999" y="113.8" type="line" smooth="yes"/>
      <point x="54.63999999999999" y="84.8"/>
      <point x="41.259999999934" y="77.8"/>
      <point x="23.78" y="77.8" type="curve" smooth="yes"/>
      <point x="12.160000000000004" y="77.8" type="line"/>
      <point x="12.160000000000004" y="1.6799999999999997" type="line"/>
      <point x="397.18000000000006" y="1.6799999999999997" type="line" smooth="yes"/>
      <point x="579.34999999978" y="1.6799999999999997"/>
      <point x="665.8399999999999" y="77.016"/>
      <point x="665.8399999999999" y="201.84799999999998" type="curve" smooth="yes"/>
      <point x="665.8399999999999" y="318.0"/>
      <point x="574.4841872355801" y="374.3249875374515"/>
      <point x="450.82" y="380.17600000000004" type="curve"/>
      <point x="459.9" y="371.32000000000005" type="line"/>
      <point x="570.7199999999999" y="376.312"/>
      <point x="651.6800000000001" y="426.672"/>
      <point x="651.6800000000001" y="539.152" type="curve" smooth="yes"/>
      <point x="651.6800000000001" y="644.152"/>
      <point x="571.7199999999999" y="708.32"/>
    </contour>
    <contour>
      <point x="340.0" y="410.648" type="curve"/>
      <point x="259.04" y="410.648" type="line"/>
      <point x="259.04" y="626.528" type="line"/>
      <point x="360.24" y="626.528" type="line"/>
      <point x="420.9599999999999" y="626.528"/>
      <point x="447.2800000000001" y="590.688"/>
      <point x="447.2800000000001" y="525.0" type="curve" smooth="yes"/>
      <point x="447.2800000000001" y="450.512"/>
      <point x="427.04" y="410.648"/>
    </contour>
    <contour>
      <point x="339.0" y="330.024" type="line"/>
      <point x="430.58000000000004" y="330.024"/>
      <point x="455.36000000000007" y="286.0"/>
      <point x="455.36000000000007" y="211.336" type="curve" smooth="yes"/>
      <point x="455.36000000000007" y="122.99199999999999"/>
      <point x="419.9600000000001" y="83.30399999999999"/>
      <point x="347.08000000000004" y="83.30399999999999" type="curve" smooth="yes"/>
      <point x="259.04" y="83.30399999999999" type="line"/>
      <point x="259.04" y="330.024" type="line"/>
    </contour>
  </outline>
</glyph>
<glyph name="bracketleft.uc" format="2">
  <advance width="430.04"/>
  <outline>
    <contour>
      <point x="47.56000000000001" y="745.0400000000001" type="line"/>
      <point x="47.56000000000001" y="-39.208000000000006" type="line"/>
      <point x="273.2" y="-39.208000000000006" type="line"/>
      <point x="273.2" y="745.0400000000001" type="line"/>
    </contour>
    <contour>
      <point x="403.26" y="745.0400000000001" type="line"/>
      <point x="95.12000000000002" y="745.0400000000001" type="line"/>
      <point x="95.12000000000002" y="653.44" type="line"/>
      <point x="403.26" y="653.44" type="line"/>
    </contour>
    <contour>
      <point x="403.26" y="52.392" type="line"/>
      <point x="95.12000000000002" y="52.392" type="line"/>
      <point x="95.12000000000002" y="-39.208000000000006" type="line"/>
      <point x="403.26" y="-39.208000000000006" type="line"/>
    </contour>
  </outline>
</glyph>
<glyph name="dollar.alt" format="2">
  <advance width="665.8399999999999"/>
  <outline>
    <contour>
      <point x="312.68000000000006" y="105.28" type="curve" smooth="yes"/>
      <point x="249.95999999999998" y="105.28"/>
      <point x="198.50633881366002" y="127.73023920786054"/>
      <point x="166.45999999999998" y="166.816" type="curve"/>
      <point x="152.3" y="155.144"/>
      <point x="174.54000000000002" y="105.65599999999999"/>
      <point x="217.56" y="107.808" type="curve"/>
      <point x="217.56" y="207.184" type="line"/>
      <point x="17.700000000000003" y="207.184" type="line"/>
      <point x="17.700000000000003" y="82.016" type="line"/>
      <point x="60.71999999999999" y="51.495999999999995"/>
      <point x="180.33585937500004" y="12.0"/>
      <point x="320.76000000000005" y="12.0" type="curve" smooth="yes"/>
      <point x="531.24" y="12.0"/>
      <point x="648.1399999999999" y="97.44304068654488"/>
      <point x="648.1399999999999" y="239.616" type="curve" smooth="yes"/>
      <point x="648.1399999999999" y="365.65976072067696"/>
      <point x="554.02" y="418.272"/>
      <point x="403.2600000000001" y="459.24800000000005" type="curve" smooth="yes"/>
      <point x="330.38000000000005" y="480.416"/>
      <point x="253.5" y="496.592"/>
      <point x="253.5" y="548.472" type="curve" smooth="yes"/>
      <point x="253.5" y="588.016"/>
      <point x="282.82" y="609.712"/>
      <point x="333.91999999999996" y="609.712" type="curve" smooth="yes"/>
      <point x="383.02" y="609.712"/>
      <point x="418.0014407645199" y="589.1998734658416"/>
      <point x="454.36" y="553.52" type="curve"/>
      <point x="467.52" y="566.3679999999999"/>
      <point x="448.28000000000003" y="614.344"/>
      <point x="406.8" y="611.3520000000001" type="curve"/>
      <point x="406.8" y="520.336" type="line"/>
      <point x="600.58" y="520.336" type="line"/>
      <point x="600.58" y="642.8159999999999" type="line"/>
      <point x="566.1800000000001" y="667.992"/>
      <point x="471.05999999999995" y="698.0"/>
      <point x="341.0" y="698.0" type="curve" smooth="yes"/>
      <point x="143.68" y="698.0"/>
      <point x="17.700000000000003" y="624.512"/>
      <point x="17.700000000000003" y="493.048" type="curve" smooth="yes"/>
      <point x="17.700000000000003" y="364.9943789089332"/>
      <point x="111.82" y="311.408"/>
      <point x="223.64000000000001" y="276.088" type="curve" smooth="yes"/>
      <point x="320.76" y="245.264"/>
      <point x="406.8" y="239.08"/>
      <point x="406.8" y="176.36" type="curve" smooth="yes"/>
      <point x="406.8" y="127.47200000000001"/>
      <point x="370.86000000000007" y="105.28"/>
    </contour>
    <contour>
      <point x="394.64000000000004" y="662.848" type="line"/>
      <point x="394.64000000000004" y="790.0" type="line"/>
      <point x="275.74" y="790.0" type="line"/>
      <point x="275.74" y="662.848" type="line"/>
    </contour>
    <contour>
      <point x="275.74" y="64.28800000000001" type="line"/>
      <point x="275.74" y="-120.0" type="line"/>
      <point x="394.64000000000004" y="-120.0" type="line"/>
      <point x="394.64000000000004" y="64.28800000000001" type="line"/>
    </contour>
  </outline>
</glyph>
<glyph name="dollar.proportional" format="2">
  <advance width="729.5600000000001"/>
  <outline>
    <contour>
      <point x="299.52" y="790.0" type="line"/>
      <point x="299.52" y="645.536" type="line"/>
      <point x="317.2199999999999" y="627.88" type="line"/>
      <point x="317.2199999999999" y="77.61600000000001" type="line"/>
      <point x="299.52" y="56.304" type="line"/>
      <point x="299.52" y="-120.0" type="line"/>
      <point x="430.58000000000004" y="-120.0" type="line"/>
      <point x="430.58000000000004" y="55.13600000000001" type="line"/>
      <point x="412.34000000000003" y="79.78399999999999" type="line"/>
      <point x="412.34000000000003" y="633.712" type="line"/>
      <point x="430.58000000000004" y="652.528" type="line"/>
      <point x="430.58000000000004" y="790.0" type="line"/>
    </contour>
    <contour>
      <point x="359.24000000000007" y="98.95200000000001" type="curve" smooth="yes"/>
      <point x="258.04" y="98.95200000000001"/>
      <point x="177.07999999999998" y="135.272"/>
      <point x="138.14000000000001" y="170.976" type="curve"/>
      <point x="123.44" y="167.288"/>
      <point x="166.45999999999998" y="106.488"/>
      <point x="210.48000000000002" y="108.976" type="curve"/>
      <point x="210.48000000000002" y="218.0" type="line"/>
      <point x="29.859999999999996" y="218.0" type="line"/>
      <point x="29.859999999999996" y="85.68799999999999" type="line"/>
      <point x="81.96000000000001" y="50.168"/>
      <point x="197.31999999999996" y="12.0"/>
      <point x="363.78000000000003" y="12.0" type="curve" smooth="yes"/>
      <point x="574.2600000000001" y="12.0"/>
      <point x="700.2399999999998" y="88.648"/>
      <point x="700.2399999999998" y="239.616" type="curve" smooth="yes"/>
      <point x="700.2399999999998" y="368.272"/>
      <point x="583.8800000000001" y="420.76"/>
      <point x="393.64" y="463.568" type="curve" smooth="yes"/>
      <point x="309.14" y="484.072"/>
      <point x="236.79999999999995" y="492.256"/>
      <point x="236.79999999999995" y="546.6400000000001" type="curve" smooth="yes"/>
      <point x="236.79999999999995" y="590.52"/>
      <point x="279.28000000000003" y="612.048"/>
      <point x="368.32" y="612.048" type="curve" smooth="yes"/>
      <point x="444.74" y="612.048"/>
      <point x="506.46000000000004" y="595.512"/>
      <point x="551.48" y="561.1840000000001" type="curve"/>
      <point x="566.1800000000001" y="573.688"/>
      <point x="544.4" y="621.0"/>
      <point x="498.38000000000005" y="618.008" type="curve"/>
      <point x="498.38000000000005" y="517.84" type="line"/>
      <point x="664.8399999999999" y="517.84" type="line"/>
      <point x="664.8399999999999" y="637.152" type="line"/>
      <point x="620.8199999999999" y="665.8159999999999"/>
      <point x="501.91999999999996" y="698.0"/>
      <point x="368.31999999999994" y="698.0" type="curve" smooth="yes"/>
      <point x="174.54000000000002" y="698.0"/>
      <point x="43.019999999999996" y="626.68"/>
      <point x="43.019999999999996" y="495.37600000000003" type="curve" smooth="yes"/>
      <point x="43.019999999999996" y="367.03999999999996"/>
      <point x="158.37999999999997" y="311.24800000000005"/>
      <point x="317.21999999999997" y="274.264" type="curve" smooth="yes"/>
      <point x="440.2" y="245.272"/>
      <point x="495.8400000000001" y="233.424"/>
      <point x="495.8400000000001" y="173.69600000000003" type="curve" smooth="yes"/>
      <point x="495.8400000000001" y="119.304"/>
      <point x="447.28000000000003" y="98.95200000000001"/>
    </contour>
  </outline>
</glyph>
<glyph name="dotaccentcomb" format="2">
  <anchor x="-1056.9400000000003" y="526.0" name="_top"/>
  <outline>
    <contour>
      <point x="-397.18000000000006" y="566.584" type="curve" smooth="yes"/>
      <point x="-303.06" y="566.584"/>
      <point x="-249.42" y="600.4"/>
      <point x="-249.42" y="657.536" type="curve" smooth="yes"/>
      <point x="-249.42" y="714.5039999999999"/>
      <point x="-303.06" y="748.32"/>
      <point x="-397.18000000000006" y="748.32" type="curve" smooth="yes"/>
      <point x="-489.7600000000001" y="748.32"/>
      <point x="-544.4" y="714.5039999999999"/>
      <point x="-544.4" y="657.536" type="curve" smooth="yes"/>
      <point x="-544.4" y="599.568"/>
      <point x="-489.7600000000001" y="566.584"/>
    </contour>
  </outline>
</glyph>
<glyph name="eight.lin" format="2">
  <advance width="665.8399999999999"/>
  <outline>
    <contour>
      <point x="332.91999999999996" y="-10.0" type="curve" smooth="yes"/>
      <point x="537.3199999999999" y="-10.0"/>
      <point x="656.2199999999999" y="75.68637185929586"/>
      <point x="656.2199999999999" y="201.15200000000002" type="curve" smooth="yes"/>
      <point x="656.2199999999999" y="324.648"/>
      <point x="531.24" y="396.32000000000005"/>
      <point x="332.91999999999996" y="396.32000000000005" type="curve" smooth="yes"/>
      <point x="134.60000000000002" y="396.32000000000005"/>
      <point x="9.619999999999997" y="324.743279170997"/>
      <point x="9.619999999999997" y="201.15200000000002" type="curve" smooth="yes"/>
      <point x="9.619999999999997" y="75.61895309152631"/>
      <point x="128.52" y="-10.0"/>
    </contour>
    <contour>
      <point x="332.91999999999996" y="332.024" type="curve" smooth="yes"/>
      <point x="367.31999999999994" y="332.024"/>
      <point x="383.02" y="297.7911328858863"/>
      <point x="383.02" y="206.98399999999998" type="curve" smooth="yes"/>
      <point x="383.02" y="122.33054999997032"/>
      <point x="366.32" y="83.28"/>
      <point x="332.91999999999996" y="83.28" type="curve" smooth="yes"/>
      <point x="299.52" y="83.28"/>
      <point x="282.81999999999994" y="122.33054999997032"/>
      <point x="282.81999999999994" y="206.98399999999998" type="curve" smooth="yes"/>
      <point x="282.81999999999994" y="297.7911328858863"/>
      <point x="298.52" y="332.024"/>
    </contour>
    <contour>
      <point x="332.91999999999996" y="360.67999999999995" type="curve" smooth="yes"/>
      <point x="516.5040650404001" y="360.67999999999995"/>
      <point x="626.3600000000001" y="426.848"/>
      <point x="626.3600000000001" y="538.84" type="curve" smooth="yes"/>
      <point x="626.3600000000001" y="645.3567759999703"/>
      <point x="516.08" y="720.0"/>
      <point x="332.91999999999996" y="720.0" type="curve" smooth="yes"/>
      <point x="149.75999999999996" y="720.0"/>
      <point x="39.47999999999999" y="645.3567759999703"/>
      <point x="39.47999999999999" y="538.84" type="curve" smooth="yes"/>
      <point x="39.47999999999999" y="426.848"/>
      <point x="149.33593495960002" y="360.67999999999995"/>
    </contour>
    <contour>
      <point x="332.91999999999996" y="626.72" type="curve" smooth="yes"/>
      <point x="362.7800000000001" y="626.72"/>
      <point x="376.94" y="598.3677532307761"/>
      <point x="376.94" y="524.68" type="curve" smooth="yes"/>
      <point x="376.94" y="447.54705511807447"/>
      <point x="362.7800000000001" y="419.976"/>
      <point x="332.91999999999996" y="419.976" type="curve" smooth="yes"/>
      <point x="303.06000000000006" y="419.976"/>
      <point x="288.9" y="447.54705511807447"/>
      <point x="288.9" y="524.68" type="curve" smooth="yes"/>
      <point x="288.9" y="598.3677532307761"/>
      <point x="303.06" y="626.72"/>
    </contour>
  </outline>
</glyph>
<glyph name="f_h" format="2">
  <advance width="1257.8"/>
  <outline>
    <contour>
      <point x="-3.552713678800501e-15" y="512.992" type="line"/>
      <point x="-3.552713678800501e-15" y="432.69599999999997" type="line"/>
      <point x="457.9" y="432.69599999999997" type="line"/>
      <point x="457.9" y="512.992" type="line"/>
    </contour>
    <contour>
      <point x="1249.7200000000003" y="0.0" type="line"/>
      <point x="1249.7200000000003" y="70.792" type="line"/>
      <point x="1247.1799999999998" y="70.792" type="line" smooth="yes"/>
      <point x="1225.94" y="70.792"/>
      <point x="1209.2399999999998" y="76.96000000000001"/>
      <point x="1209.2399999999998" y="98.47200000000001" type="curve" smooth="yes"/>
      <point x="1209.2399999999998" y="345.352" type="line" smooth="yes"/>
      <point x="1209.2399999999998" y="461.344"/>
      <point x="1125.7400000000005" y="522.992"/>
      <point x="998.7600000000002" y="522.992" type="curve" smooth="yes"/>
      <point x="893.02" y="522.992"/>
      <point x="812.0600000000002" y="475.144"/>
      <point x="773.1200000000001" y="394.75199999999995" type="curve"/>
      <point x="791.8200000000002" y="324.82399999999996" type="line"/>
      <point x="812.0600000000001" y="376.384"/>
      <point x="839.3799999999999" y="408.408"/>
      <point x="875.3200000000002" y="408.408" type="curve" smooth="yes"/>
      <point x="907.1800000000001" y="408.408"/>
      <point x="917.8" y="388.55199999999996"/>
      <point x="917.8" y="347.66400000000004" type="curve" smooth="yes"/>
      <point x="917.8" y="79.12799999999999" type="line" smooth="yes"/>
      <point x="917.8" y="72.96000000000002"/>
      <point x="897.5600000000002" y="70.792"/>
      <point x="883.4" y="70.792" type="curve" smooth="yes"/>
      <point x="882.4" y="70.792" type="line"/>
      <point x="882.4" y="0.0" type="line"/>
    </contour>
    <contour>
      <point x="832.3" y="0.0" type="line"/>
      <point x="832.3" y="70.792" type="line"/>
      <point x="828.76" y="70.792" type="line" smooth="yes"/>
      <point x="816.5999999999999" y="70.792"/>
      <point x="796.9000000000001" y="72.96000000000002"/>
      <point x="796.9000000000001" y="79.12799999999999" type="curve"/>
      <point x="796.9000000000001" y="730.84" type="line"/>
      <point x="464.9800000000001" y="730.84" type="line"/>
      <point x="505.4600000000001" y="676.536" type="line"/>
      <point x="505.4600000000001" y="79.12799999999999" type="line"/>
      <point x="505.4600000000001" y="72.96000000000002"/>
      <point x="485.2199999999999" y="70.792"/>
      <point x="473.06000000000006" y="70.792" type="curve" smooth="yes"/>
      <point x="468.52" y="70.792" type="line"/>
      <point x="468.52" y="0.0" type="line"/>
    </contour>
    <contour>
      <point x="418.41999999999996" y="0.0" type="line"/>
      <point x="418.41999999999996" y="70.792" type="line"/>
      <point x="414.88" y="70.792" type="line" smooth="yes"/>
      <point x="388.56000000000006" y="70.792"/>
      <point x="374.4" y="72.96000000000002"/>
      <point x="374.4" y="79.12799999999999" type="curve"/>
      <point x="374.4" y="574.3280000000001" type="line" smooth="yes"/>
      <point x="374.4" y="637.2239999999999"/>
      <point x="399.7199999999999" y="660.2239999999999"/>
      <point x="450.81999999999994" y="660.2239999999999" type="curve" smooth="yes"/>
      <point x="502.91999999999996" y="660.2239999999999"/>
      <point x="537.3199999999999" y="634.904"/>
      <point x="560.0999999999999" y="573.912" type="curve"/>
      <point x="685.08" y="694.84" type="line"/>
      <point x="625.3600000000001" y="722.68"/>
      <point x="545.94" y="747.84"/>
      <point x="419.96000000000004" y="747.84" type="curve" smooth="yes"/>
      <point x="240.34000000000003" y="747.84"/>
      <point x="84.49999999999999" y="695.856"/>
      <point x="84.49999999999999" y="543.544" type="curve" smooth="yes"/>
      <point x="84.49999999999999" y="101.8" type="line" smooth="yes"/>
      <point x="84.49999999999999" y="80.28800000000001"/>
      <point x="66.80000000000001" y="70.792"/>
      <point x="33.400000000000006" y="70.792" type="curve" smooth="yes"/>
      <point x="19.24" y="70.792" type="line"/>
      <point x="19.24" y="0.0" type="line"/>
    </contour>
  </outline>
</glyph>
<glyph name="f_j.alt" format="2">
  <advance width="835.84"/>
  <outline>
    <contour>
      <point x="-3.552713678800501e-15" y="512.992" type="line"/>
      <point x="-3.552713678800501e-15" y="432.69599999999997" type="line"/>
      <point x="502.91999999999996" y="432.69599999999997" type="line"/>
      <point x="502.91999999999996" y="512.992" type="line"/>
    </contour>
    <contour>
      <point x="505.4600000000001" y="-27.528" type="line" smooth="yes"/>
      <point x="505.4600000000001" y="-117.37599999999999"/>
      <point x="480.14" y="-146.544"/>
      <point x="428.0399999999999" y="-146.544" type="curve" smooth="yes"/>
      <point x="392.64000000000004" y="-146.544"/>
      <point x="363.7800000000001" y="-136.55200000000002"/>
      <point x="340.0" y="-128.55200000000002" type="curve"/>
      <point x="340.0" y="-220.672" type="line"/>
      <point x="357.7" y="-227.83999999999997"/>
      <point x="416.41999999999996" y="-236.0"/>
      <point x="486.2199999999999" y="-236.0" type="curve" smooth="yes"/>
      <point x="700.24" y="-236.0"/>
      <point x="795.3600000000001" y="-173.2"/>
      <point x="795.3600000000001" y="-0.9040000000000106" type="curve" smooth="yes"/>
      <point x="795.3600000000001" y="512.992" type="line"/>
      <point x="452.81999999999994" y="512.992" type="line"/>
      <point x="452.81999999999994" y="432.69599999999997" type="line"/>
      <point x="473.05999999999995" y="432.69599999999997" type="line" smooth="yes"/>
      <point x="498.38" y="432.69599999999997"/>
      <point x="505.4600000000001" y="421.688"/>
      <point x="505.4600000000001" y="403.504" type="curve" smooth="yes"/>
    </contour>
    <contour>
      <point x="374.4" y="79.12799999999999" type="curve" smooth="yes"/>
      <point x="374.4" y="555.024" type="line" smooth="yes"/>
      <point x="374.4" y="631.376"/>
      <point x="399.71999999999997" y="663.552"/>
      <point x="478.1400000000001" y="663.552" type="curve" smooth="yes"/>
      <point x="529.24" y="663.552"/>
      <point x="554.02" y="645.88"/>
      <point x="560.0999999999999" y="632.192" type="curve"/>
      <point x="591.96" y="636.88"/>
      <point x="584.8800000000001" y="687.872"/>
      <point x="532.78" y="689.3679999999999" type="curve"/>
      <point x="532.78" y="579.888" type="line"/>
      <point x="763.5" y="579.888" type="line"/>
      <point x="763.5" y="703.848" type="line"/>
      <point x="712.4" y="723.0"/>
      <point x="605.1199999999999" y="747.84"/>
      <point x="462.44000000000005" y="747.84" type="curve" smooth="yes"/>
      <point x="250.95999999999998" y="747.84"/>
      <point x="84.49999999999999" y="691.992"/>
      <point x="84.49999999999999" y="543.376" type="curve" smooth="yes"/>
      <point x="84.49999999999999" y="101.8" type="line"/>
      <point x="84.49999999999999" y="80.28800000000001"/>
      <point x="66.80000000000001" y="70.792"/>
      <point x="33.400000000000006" y="70.792" type="curve" smooth="yes"/>
      <point x="19.24" y="70.792" type="line"/>
      <point x="19.24" y="0.0" type="line"/>
      <point x="414.88000000000005" y="0.0" type="line"/>
      <point x="414.88000000000005" y="70.792" type="line"/>
      <point x="407.8" y="70.792" type="line" smooth="yes"/>
      <point x="392.64000000000004" y="70.792"/>
      <point x="374.4" y="72.96000000000002"/>
    </contour>
  </outline>
</glyph>
<glyph name="florin.proportional" format="2">
  <advance width="619.28"/>
  <outline>
    <contour>
      <point x="59.72" y="508.0" type="line"/>
      <point x="50.10000000000001" y="419.88800000000003" type="line"/>
      <point x="567.1800000000001" y="419.88800000000003" type="line"/>
      <point x="576.8000000000001" y="508.0" type="line"/>
    </contour>
    <contour>
      <point x="354.1600000000001" y="78.464" type="curve" smooth="yes"/>
      <point x="436.11999999999995" y="560.3679999999999" type="line" smooth="yes"/>
      <point x="447.2800000000001" y="625.24"/>
      <point x="485.2199999999999" y="644.424"/>
      <point x="531.2399999999999" y="644.424" type="curve" smooth="yes"/>
      <point x="567.1800000000001" y="644.424"/>
      <point x="590.96" y="637.424"/>
      <point x="611.2" y="630.416" type="curve"/>
      <point x="619.2800000000001" y="724.704" type="line"/>
      <point x="589.96" y="736.704"/>
      <point x="543.4" y="745.3679999999999"/>
      <point x="471.05999999999995" y="745.3679999999999" type="curve" smooth="yes"/>
      <point x="301.06" y="745.3679999999999"/>
      <point x="200.85999999999996" y="682.544"/>
      <point x="177.07999999999998" y="548.8960000000001" type="curve" smooth="yes"/>
      <point x="96.12" y="64.464" type="line" smooth="yes"/>
      <point x="65.25999999999999" y="-116.04799999999999"/>
      <point x="23.78" y="-136.72"/>
      <point x="-23.78" y="-136.72" type="curve" smooth="yes"/>
      <point x="-58.18000000000001" y="-136.72"/>
      <point x="-88.04000000000002" y="-124.72800000000001"/>
      <point x="-103.2" y="-119.392" type="curve"/>
      <point x="-109.27999999999997" y="-216.176" type="line"/>
      <point x="-90.58" y="-225.672"/>
      <point x="-45.02000000000001" y="-236.0"/>
      <point x="8.08" y="-236.0" type="curve" smooth="yes"/>
      <point x="183.15999999999997" y="-236.0"/>
      <point x="312.68000000000006" y="-157.83999999999997"/>
    </contour>
  </outline>
</glyph>
<glyph name="liraTurkish" format="2">
  <advance width="665.8399999999999"/>
  <outline>
    <contour>
      <point x="17.699999999999996" y="390.53599999999994" type="line"/>
      <point x="17.699999999999996" y="309.416" type="line"/>
      <point x="475.59999999999997" y="507.544" type="line"/>
      <point x="475.59999999999997" y="588.664" type="line"/>
    </contour>
    <contour>
      <point x="17.699999999999996" y="240.512" type="line"/>
      <point x="17.699999999999996" y="159.392" type="line"/>
      <point x="475.59999999999997" y="357.52000000000004" type="line"/>
      <point x="475.59999999999997" y="438.64" type="line"/>
    </contour>
    <contour>
      <point x="361.24" y="86.95200000000001" type="curve" smooth="yes"/>
      <point x="354.1600000000001" y="86.95200000000001" type="line"/>
      <point x="354.1600000000001" y="597.88" type="line" smooth="yes"/>
      <point x="354.1600000000001" y="626.88"/>
      <point x="376.94000000000005" y="633.88"/>
      <point x="408.79999999999995" y="633.88" type="curve" smooth="yes"/>
      <point x="428.04" y="633.88" type="line"/>
      <point x="428.04" y="710.0" type="line"/>
      <point x="17.699999999999996" y="710.0" type="line"/>
      <point x="17.699999999999996" y="633.88" type="line"/>
      <point x="29.86000000000001" y="633.88" type="line" smooth="yes"/>
      <point x="59.72" y="633.88"/>
      <point x="80.96000000000001" y="626.88"/>
      <point x="80.96000000000001" y="597.88" type="curve" smooth="yes"/>
      <point x="80.96000000000001" y="112.11999999999999" type="line" smooth="yes"/>
      <point x="80.96000000000001" y="83.11999999999999"/>
      <point x="59.72" y="76.11999999999999"/>
      <point x="29.86000000000001" y="76.11999999999999" type="curve" smooth="yes"/>
      <point x="17.699999999999996" y="76.11999999999999" type="line"/>
      <point x="17.699999999999996" y="0.0" type="line"/>
      <point x="284.36" y="0.0" type="line" smooth="yes"/>
      <point x="544.4" y="0.0"/>
      <point x="642.0600000000002" y="96.0"/>
      <point x="659.76" y="266.848" type="curve"/>
      <point x="482.68000000000006" y="303.992" type="line"/>
      <point x="478.14000000000004" y="189.256"/>
      <point x="444.7399999999999" y="86.95200000000001"/>
    </contour>
  </outline>
</glyph>
<glyph name="minus.sup" format="2">
  <advance width="487.76"/>
  <outline>
    <contour>
      <point x="421.96" y="564.712" type="line"/>
      <point x="65.26" y="564.712" type="line"/>
      <point x="65.26" y="475.11199999999997" type="line"/>
      <point x="421.96" y="475.11199999999997" type="line"/>
    </contour>
  </outline>
</glyph>
<glyph name="tilde.uc" format="2">
  <advance width="594.5"/>
  <anchor x="297.52" y="694.0" name="_top"/>
  <outline>
    <contour>
      <point x="374.4" y="752.52" type="curve" smooth="yes"/>
      <point x="459.9" y="752.52"/>
      <point x="513.28655333984" y="809.9290181157957"/>
      <point x="536.3199999999999" y="898.288" type="curve"/>
      <point x="428.04" y="928.1039999999999" type="line"/>
      <point x="417.41999999999996" y="896.6"/>
      <point x="404.26" y="880.424"/>
      <point x="377.94" y="880.424" type="curve" smooth="yes"/>
      <point x="335.46" y="880.424"/>
      <point x="309.14" y="924.1039999999999"/>
      <point x="222.10000000000002" y="924.1039999999999" type="curve" smooth="yes"/>
      <point x="130.52" y="924.1039999999999"/>
      <point x="84.98811685930802" y="869.0404377300707"/>
      <point x="64.26" y="778.168" type="curve"/>
      <point x="172.54000000000002" y="750.1840000000001" type="line"/>
      <point x="180.62" y="782.024"/>
      <point x="193.78000000000003" y="797.2"/>
      <point x="218.55999999999997" y="797.2" type="curve" smooth="yes"/>
      <point x="254.5" y="797.2"/>
      <point x="281.82" y="752.52"/>
    </contour>
  </outline>
</glyph>
<glyph name="whitediamond" format="2">
  <advance width="739.7200000000003"/>
  <outline>
    <contour>
      <point x="680.0" y="313.0" type="line"/>
      <point x="369.8600000000001" y="574.0" type="line"/>
      <point x="59.72000000000001" y="313.0" type="line"/>
      <point x="369.8600000000001" y="52.0" type="line"/>
    </contour>
    <contour>
      <point x="586.42" y="313.0" type="line"/>
      <point x="369.8600000000001" y="131.0" type="line"/>
      <point x="153.3" y="313.0" type="line"/>
      <point x="369.8600000000001" y="495.0" type="line"/>
    </contour>
  </outline>
</glyph>
<glyph name="whitedownpointingtriangle" format="2">
  <advance width="767.04"/>
  <outline>
    <contour>
      <point x="701.2399999999999" y="464.0" type="line"/>
      <point x="65.26" y="464.0" type="line"/>
      <point x="383.02" y="91.0" type="line"/>
    </contour>
    <contour>
      <point x="600.58" y="414.0" type="line"/>
      <point x="591.96" y="430.0" type="line"/>
      <point x="376.94000000000005" y="175.0" type="line"/>
      <point x="390.1" y="175.0" type="line"/>
      <point x="174.54000000000002" y="430.0" type="line"/>
      <point x="166.45999999999998" y="414.0" type="line"/>
    </contour>
  </outline>
</glyph>
